<mxfile host="app.diagrams.net" modified="2024-05-24T22:58:01.887Z" agent="Mozilla/5.0 (Windows NT 10.0; Win64; x64) AppleWebKit/537.36 (KHTML, like Gecko) Chrome/122.0.0.0 Safari/537.36" etag="T1Z8ieaONibWVjF0KkIJ" version="24.4.8" type="device">
  <diagram name="Página-1" id="bWfWF3N8jvyV1MjqH5SP">
    <mxGraphModel dx="926" dy="493" grid="1" gridSize="10" guides="1" tooltips="1" connect="1" arrows="1" fold="1" page="1" pageScale="1" pageWidth="827" pageHeight="1169" math="0" shadow="0">
      <root>
        <mxCell id="0" />
        <mxCell id="1" parent="0" />
        <mxCell id="ebJEwL9NtCBt9HkGgo9y-1" value="&lt;font style=&quot;vertical-align: inherit;&quot;&gt;&lt;font style=&quot;vertical-align: inherit;&quot;&gt;Registro Produccion&lt;/font&gt;&lt;/font&gt;" style="ellipse;whiteSpace=wrap;html=1;" vertex="1" parent="1">
          <mxGeometry x="362" y="30" width="120" height="80" as="geometry" />
        </mxCell>
        <mxCell id="ebJEwL9NtCBt9HkGgo9y-19" style="edgeStyle=orthogonalEdgeStyle;rounded=0;orthogonalLoop=1;jettySize=auto;html=1;exitX=1;exitY=0.5;exitDx=0;exitDy=0;entryX=0.5;entryY=0;entryDx=0;entryDy=0;" edge="1" parent="1" source="ebJEwL9NtCBt9HkGgo9y-4">
          <mxGeometry relative="1" as="geometry">
            <mxPoint x="695" y="500" as="targetPoint" />
          </mxGeometry>
        </mxCell>
        <mxCell id="ebJEwL9NtCBt9HkGgo9y-4" value="&lt;div style=&quot;&quot;&gt;&lt;font style=&quot;vertical-align: inherit;&quot;&gt;&lt;font style=&quot;vertical-align: inherit;&quot;&gt;Los datos ingresados son correctos y completos?&lt;/font&gt;&lt;/font&gt;&lt;/div&gt;" style="rhombus;whiteSpace=wrap;html=1;align=center;" vertex="1" parent="1">
          <mxGeometry x="294.5" y="330" width="295.5" height="160" as="geometry" />
        </mxCell>
        <mxCell id="ebJEwL9NtCBt9HkGgo9y-5" value="" style="endArrow=classic;html=1;rounded=0;exitX=0.5;exitY=1;exitDx=0;exitDy=0;" edge="1" parent="1" source="ebJEwL9NtCBt9HkGgo9y-1">
          <mxGeometry width="50" height="50" relative="1" as="geometry">
            <mxPoint x="190" y="310" as="sourcePoint" />
            <mxPoint x="422" y="190" as="targetPoint" />
          </mxGeometry>
        </mxCell>
        <mxCell id="ebJEwL9NtCBt9HkGgo9y-7" value="" style="endArrow=classic;html=1;rounded=0;exitX=0.454;exitY=1.022;exitDx=0;exitDy=0;exitPerimeter=0;entryX=0.454;entryY=0.045;entryDx=0;entryDy=0;entryPerimeter=0;" edge="1" parent="1" target="ebJEwL9NtCBt9HkGgo9y-15">
          <mxGeometry width="50" height="50" relative="1" as="geometry">
            <mxPoint x="438.03999999999996" y="251.32000000000005" as="sourcePoint" />
            <mxPoint x="420" y="310" as="targetPoint" />
          </mxGeometry>
        </mxCell>
        <mxCell id="ebJEwL9NtCBt9HkGgo9y-9" value="" style="endArrow=none;html=1;rounded=0;entryX=0;entryY=0.5;entryDx=0;entryDy=0;" edge="1" parent="1">
          <mxGeometry width="50" height="50" relative="1" as="geometry">
            <mxPoint x="80" y="410" as="sourcePoint" />
            <mxPoint x="300" y="409.5" as="targetPoint" />
          </mxGeometry>
        </mxCell>
        <mxCell id="ebJEwL9NtCBt9HkGgo9y-11" value="" style="endArrow=classic;html=1;rounded=0;entryX=0.5;entryY=0;entryDx=0;entryDy=0;" edge="1" parent="1" target="ebJEwL9NtCBt9HkGgo9y-23">
          <mxGeometry width="50" height="50" relative="1" as="geometry">
            <mxPoint x="80" y="410" as="sourcePoint" />
            <mxPoint x="80.00000000000023" y="460" as="targetPoint" />
          </mxGeometry>
        </mxCell>
        <mxCell id="ebJEwL9NtCBt9HkGgo9y-15" value="Datos ingresados: date, typeProduction&lt;div&gt;quantity, animalID&amp;nbsp;&amp;nbsp;&lt;/div&gt;" style="shape=parallelogram;perimeter=parallelogramPerimeter;whiteSpace=wrap;html=1;fixedSize=1;" vertex="1" parent="1">
          <mxGeometry x="300" y="190" width="255" height="60" as="geometry" />
        </mxCell>
        <mxCell id="ebJEwL9NtCBt9HkGgo9y-17" style="edgeStyle=orthogonalEdgeStyle;rounded=0;orthogonalLoop=1;jettySize=auto;html=1;exitX=0.5;exitY=1;exitDx=0;exitDy=0;entryX=0.487;entryY=0.035;entryDx=0;entryDy=0;entryPerimeter=0;" edge="1" parent="1" source="ebJEwL9NtCBt9HkGgo9y-15" target="ebJEwL9NtCBt9HkGgo9y-4">
          <mxGeometry relative="1" as="geometry" />
        </mxCell>
        <mxCell id="ebJEwL9NtCBt9HkGgo9y-22" style="edgeStyle=orthogonalEdgeStyle;rounded=0;orthogonalLoop=1;jettySize=auto;html=1;exitX=0.5;exitY=1;exitDx=0;exitDy=0;entryX=0.5;entryY=0;entryDx=0;entryDy=0;" edge="1" parent="1" target="ebJEwL9NtCBt9HkGgo9y-21">
          <mxGeometry relative="1" as="geometry">
            <mxPoint x="695" y="560" as="sourcePoint" />
          </mxGeometry>
        </mxCell>
        <mxCell id="ebJEwL9NtCBt9HkGgo9y-21" value="Datos de producción ingresados correctamente" style="shape=document;whiteSpace=wrap;html=1;boundedLbl=1;" vertex="1" parent="1">
          <mxGeometry x="650" y="610" width="120" height="80" as="geometry" />
        </mxCell>
        <mxCell id="ebJEwL9NtCBt9HkGgo9y-28" style="edgeStyle=orthogonalEdgeStyle;rounded=0;orthogonalLoop=1;jettySize=auto;html=1;exitX=0.567;exitY=0.8;exitDx=0;exitDy=0;entryX=0.5;entryY=0;entryDx=0;entryDy=0;exitPerimeter=0;" edge="1" parent="1" source="ebJEwL9NtCBt9HkGgo9y-23" target="ebJEwL9NtCBt9HkGgo9y-25">
          <mxGeometry relative="1" as="geometry">
            <Array as="points">
              <mxPoint x="78" y="720" />
              <mxPoint x="280" y="720" />
              <mxPoint x="280" y="760" />
              <mxPoint x="390" y="760" />
            </Array>
          </mxGeometry>
        </mxCell>
        <mxCell id="ebJEwL9NtCBt9HkGgo9y-23" value="&amp;nbsp;Los datos estan incorrectos o no completos" style="shape=document;whiteSpace=wrap;html=1;boundedLbl=1;" vertex="1" parent="1">
          <mxGeometry x="20" y="585" width="120" height="80" as="geometry" />
        </mxCell>
        <mxCell id="ebJEwL9NtCBt9HkGgo9y-25" value="Fin&lt;div&gt;&lt;br&gt;&lt;/div&gt;" style="ellipse;whiteSpace=wrap;html=1;" vertex="1" parent="1">
          <mxGeometry x="330" y="930" width="120" height="80" as="geometry" />
        </mxCell>
        <mxCell id="ebJEwL9NtCBt9HkGgo9y-30" style="edgeStyle=orthogonalEdgeStyle;rounded=0;orthogonalLoop=1;jettySize=auto;html=1;entryX=0.5;entryY=0;entryDx=0;entryDy=0;" edge="1" parent="1" source="ebJEwL9NtCBt9HkGgo9y-21" target="ebJEwL9NtCBt9HkGgo9y-25">
          <mxGeometry relative="1" as="geometry">
            <mxPoint x="390" y="920" as="targetPoint" />
            <mxPoint x="720" y="780" as="sourcePoint" />
          </mxGeometry>
        </mxCell>
        <mxCell id="ebJEwL9NtCBt9HkGgo9y-32" value="Datos enviados" style="rounded=0;whiteSpace=wrap;html=1;" vertex="1" parent="1">
          <mxGeometry x="640" y="500" width="120" height="60" as="geometry" />
        </mxCell>
        <mxCell id="ebJEwL9NtCBt9HkGgo9y-40" style="edgeStyle=orthogonalEdgeStyle;rounded=0;orthogonalLoop=1;jettySize=auto;html=1;exitX=0.5;exitY=1;exitDx=0;exitDy=0;entryX=0.5;entryY=0;entryDx=0;entryDy=0;" edge="1" parent="1" source="ebJEwL9NtCBt9HkGgo9y-33" target="ebJEwL9NtCBt9HkGgo9y-34">
          <mxGeometry relative="1" as="geometry" />
        </mxCell>
        <mxCell id="ebJEwL9NtCBt9HkGgo9y-33" value="&lt;span id=&quot;docs-internal-guid-d9bcc515-7fff-02f5-b1e7-fee0ed0a630b&quot;&gt;&lt;span style=&quot;font-size: 11pt; font-family: &amp;quot;Times New Roman&amp;quot;, serif; background-color: transparent; font-variant-numeric: normal; font-variant-east-asian: normal; font-variant-alternates: normal; font-variant-position: normal; vertical-align: baseline; white-space-collapse: preserve;&quot;&gt;Registro de reproducción&lt;/span&gt;&lt;/span&gt;" style="ellipse;whiteSpace=wrap;html=1;" vertex="1" parent="1">
          <mxGeometry x="330" y="1169" width="120" height="80" as="geometry" />
        </mxCell>
        <mxCell id="ebJEwL9NtCBt9HkGgo9y-42" style="edgeStyle=orthogonalEdgeStyle;rounded=0;orthogonalLoop=1;jettySize=auto;html=1;exitX=0.5;exitY=1;exitDx=0;exitDy=0;entryX=0.5;entryY=0;entryDx=0;entryDy=0;" edge="1" parent="1" source="ebJEwL9NtCBt9HkGgo9y-34" target="ebJEwL9NtCBt9HkGgo9y-35">
          <mxGeometry relative="1" as="geometry" />
        </mxCell>
        <mxCell id="ebJEwL9NtCBt9HkGgo9y-34" value="Se ingresa la fecha" style="rounded=0;whiteSpace=wrap;html=1;" vertex="1" parent="1">
          <mxGeometry x="330" y="1280" width="120" height="60" as="geometry" />
        </mxCell>
        <mxCell id="ebJEwL9NtCBt9HkGgo9y-43" style="edgeStyle=orthogonalEdgeStyle;rounded=0;orthogonalLoop=1;jettySize=auto;html=1;exitX=0.5;exitY=1;exitDx=0;exitDy=0;entryX=0.5;entryY=0;entryDx=0;entryDy=0;" edge="1" parent="1" source="ebJEwL9NtCBt9HkGgo9y-35" target="ebJEwL9NtCBt9HkGgo9y-36">
          <mxGeometry relative="1" as="geometry" />
        </mxCell>
        <mxCell id="ebJEwL9NtCBt9HkGgo9y-35" value="Se ingresa el padre&amp;nbsp;" style="rounded=0;whiteSpace=wrap;html=1;" vertex="1" parent="1">
          <mxGeometry x="330" y="1370" width="120" height="60" as="geometry" />
        </mxCell>
        <mxCell id="ebJEwL9NtCBt9HkGgo9y-44" style="edgeStyle=orthogonalEdgeStyle;rounded=0;orthogonalLoop=1;jettySize=auto;html=1;exitX=0.5;exitY=1;exitDx=0;exitDy=0;" edge="1" parent="1" source="ebJEwL9NtCBt9HkGgo9y-36" target="ebJEwL9NtCBt9HkGgo9y-37">
          <mxGeometry relative="1" as="geometry" />
        </mxCell>
        <mxCell id="ebJEwL9NtCBt9HkGgo9y-36" value="Se ingresa la madre" style="rounded=0;whiteSpace=wrap;html=1;" vertex="1" parent="1">
          <mxGeometry x="330" y="1460" width="120" height="60" as="geometry" />
        </mxCell>
        <mxCell id="ebJEwL9NtCBt9HkGgo9y-45" style="edgeStyle=orthogonalEdgeStyle;rounded=0;orthogonalLoop=1;jettySize=auto;html=1;exitX=0.5;exitY=1;exitDx=0;exitDy=0;" edge="1" parent="1" source="ebJEwL9NtCBt9HkGgo9y-37" target="ebJEwL9NtCBt9HkGgo9y-38">
          <mxGeometry relative="1" as="geometry" />
        </mxCell>
        <mxCell id="ebJEwL9NtCBt9HkGgo9y-37" value="Se ingresa el nuevo animal" style="rounded=0;whiteSpace=wrap;html=1;" vertex="1" parent="1">
          <mxGeometry x="330" y="1550" width="120" height="60" as="geometry" />
        </mxCell>
        <mxCell id="ebJEwL9NtCBt9HkGgo9y-46" style="edgeStyle=orthogonalEdgeStyle;rounded=0;orthogonalLoop=1;jettySize=auto;html=1;exitX=0.5;exitY=1;exitDx=0;exitDy=0;entryX=0.5;entryY=0;entryDx=0;entryDy=0;" edge="1" parent="1" source="ebJEwL9NtCBt9HkGgo9y-38" target="ebJEwL9NtCBt9HkGgo9y-39">
          <mxGeometry relative="1" as="geometry" />
        </mxCell>
        <mxCell id="ebJEwL9NtCBt9HkGgo9y-38" value="Se ingresa la observación" style="rounded=0;whiteSpace=wrap;html=1;" vertex="1" parent="1">
          <mxGeometry x="330" y="1640" width="120" height="60" as="geometry" />
        </mxCell>
        <mxCell id="ebJEwL9NtCBt9HkGgo9y-48" style="edgeStyle=orthogonalEdgeStyle;rounded=0;orthogonalLoop=1;jettySize=auto;html=1;exitX=0.5;exitY=1;exitDx=0;exitDy=0;entryX=0.5;entryY=0;entryDx=0;entryDy=0;" edge="1" parent="1" source="ebJEwL9NtCBt9HkGgo9y-39" target="ebJEwL9NtCBt9HkGgo9y-47">
          <mxGeometry relative="1" as="geometry" />
        </mxCell>
        <mxCell id="ebJEwL9NtCBt9HkGgo9y-39" value="Se ingresa el estado" style="rounded=0;whiteSpace=wrap;html=1;" vertex="1" parent="1">
          <mxGeometry x="330" y="1740" width="120" height="60" as="geometry" />
        </mxCell>
        <mxCell id="ebJEwL9NtCBt9HkGgo9y-50" style="edgeStyle=orthogonalEdgeStyle;rounded=0;orthogonalLoop=1;jettySize=auto;html=1;exitX=0;exitY=0.5;exitDx=0;exitDy=0;entryX=0.5;entryY=0;entryDx=0;entryDy=0;" edge="1" parent="1" source="ebJEwL9NtCBt9HkGgo9y-47" target="ebJEwL9NtCBt9HkGgo9y-49">
          <mxGeometry relative="1" as="geometry" />
        </mxCell>
        <mxCell id="ebJEwL9NtCBt9HkGgo9y-52" style="edgeStyle=orthogonalEdgeStyle;rounded=0;orthogonalLoop=1;jettySize=auto;html=1;exitX=1;exitY=0.5;exitDx=0;exitDy=0;entryX=0.5;entryY=0;entryDx=0;entryDy=0;" edge="1" parent="1" source="ebJEwL9NtCBt9HkGgo9y-47" target="ebJEwL9NtCBt9HkGgo9y-51">
          <mxGeometry relative="1" as="geometry" />
        </mxCell>
        <mxCell id="ebJEwL9NtCBt9HkGgo9y-47" value="Los datos ingresados son correctos?" style="rhombus;whiteSpace=wrap;html=1;" vertex="1" parent="1">
          <mxGeometry x="270" y="1850" width="258" height="120" as="geometry" />
        </mxCell>
        <mxCell id="ebJEwL9NtCBt9HkGgo9y-57" style="edgeStyle=orthogonalEdgeStyle;rounded=0;orthogonalLoop=1;jettySize=auto;html=1;exitX=1;exitY=0.5;exitDx=0;exitDy=0;" edge="1" parent="1" source="ebJEwL9NtCBt9HkGgo9y-49">
          <mxGeometry relative="1" as="geometry">
            <mxPoint x="390" y="2190" as="targetPoint" />
          </mxGeometry>
        </mxCell>
        <mxCell id="ebJEwL9NtCBt9HkGgo9y-49" value="Los datos ingresados son incorrectos" style="shape=document;whiteSpace=wrap;html=1;boundedLbl=1;" vertex="1" parent="1">
          <mxGeometry y="2040" width="120" height="80" as="geometry" />
        </mxCell>
        <mxCell id="ebJEwL9NtCBt9HkGgo9y-54" style="edgeStyle=orthogonalEdgeStyle;rounded=0;orthogonalLoop=1;jettySize=auto;html=1;exitX=0.5;exitY=1;exitDx=0;exitDy=0;entryX=0.5;entryY=0;entryDx=0;entryDy=0;" edge="1" parent="1" source="ebJEwL9NtCBt9HkGgo9y-51" target="ebJEwL9NtCBt9HkGgo9y-53">
          <mxGeometry relative="1" as="geometry" />
        </mxCell>
        <mxCell id="ebJEwL9NtCBt9HkGgo9y-51" value="Datos enviados&amp;nbsp;" style="rounded=0;whiteSpace=wrap;html=1;" vertex="1" parent="1">
          <mxGeometry x="640" y="1930" width="120" height="60" as="geometry" />
        </mxCell>
        <mxCell id="ebJEwL9NtCBt9HkGgo9y-56" style="edgeStyle=orthogonalEdgeStyle;rounded=0;orthogonalLoop=1;jettySize=auto;html=1;exitX=0;exitY=0.5;exitDx=0;exitDy=0;entryX=0.5;entryY=0;entryDx=0;entryDy=0;" edge="1" parent="1" source="ebJEwL9NtCBt9HkGgo9y-53" target="ebJEwL9NtCBt9HkGgo9y-55">
          <mxGeometry relative="1" as="geometry" />
        </mxCell>
        <mxCell id="ebJEwL9NtCBt9HkGgo9y-53" value="Datos de reproducción ingresados correctamente" style="shape=document;whiteSpace=wrap;html=1;boundedLbl=1;" vertex="1" parent="1">
          <mxGeometry x="640" y="2040" width="140" height="80" as="geometry" />
        </mxCell>
        <mxCell id="ebJEwL9NtCBt9HkGgo9y-55" value="Fin" style="ellipse;whiteSpace=wrap;html=1;" vertex="1" parent="1">
          <mxGeometry x="330" y="2190" width="120" height="80" as="geometry" />
        </mxCell>
      </root>
    </mxGraphModel>
  </diagram>
</mxfile>
